# xmcd
#
# Track frame offsets:
#	150
#	19546
#	35333
#	52721
#	62030
#	75748
#	90177
#	107516
#	121821
#	141103
#	151158
#	169963
#	183303
#	199795
#	211895
#
# Disc length: 3080 seconds
#
# Revision: 0
# Processed by: cddbd v1.5.2PL0 Copyright (c) Steve Scherf et al.
# Submitted via: audiograbber 1.83.01
#
DISCID=b10c060f
DTITLE=Various Artist - Christmas In The Country
DYEAR=2009
DGENRE=Country
TTITLE0=Wynonna Judd - Winter Wonderland
TTITLE1=Lonestar - I'll Be Home For Christmas
TTITLE2=LeAnn Rimes - All I Want For Christmas Is You
TTITLE3=Randy Travis - Santa Claus Is Coming To Town
TTITLE4=Trisha Yearwood - The Sweetest Gift
TTITLE5=Mark Chesnutt - Light Of The World
TTITLE6=Kenny Rogers and Wynonna Judd - Mary, Did You Know?
TTITLE7=Sawyer Brown - Christmas All Year Long
TTITLE8=Deana Carter - Boogie Woogie Santa
TTITLE9=Jo Dee  Messina - Let It Snow! Let It Snow! Let It Snow!
TTITLE10=Travis Tritt - I Heard The Bells On Christmas Day
TTITLE11=Judds - Silver Bells
TTITLE12=Clay Walker - O Come All Ye Faithful
TTITLE13=Emmylou Harris - The First Noel
TTITLE14=Dwight Yoakum - Silent Night
EXTD=
EXTT0=
EXTT1=
EXTT2=
EXTT3=
EXTT4=
EXTT5=
EXTT6=
EXTT7=
EXTT8=
EXTT9=
EXTT10=
EXTT11=
EXTT12=
EXTT13=
EXTT14=
PLAYORDER=
